<?xml version="1.0" encoding="UTF-8" standalone="no"?>
<svg
   xmlns:dc="http://purl.org/dc/elements/1.1/"
   xmlns:cc="http://creativecommons.org/ns#"
   xmlns:rdf="http://www.w3.org/1999/02/22-rdf-syntax-ns#"
   xmlns:svg="http://www.w3.org/2000/svg"
   xmlns="http://www.w3.org/2000/svg"
   viewBox="0 0 479.00266 167.79333"
   height="167.79333"
   width="479.00266"
   xml:space="preserve"
   id="svg2"
   version="1.1"><metadata
     id="metadata8"><rdf:RDF><cc:Work
         rdf:about=""><dc:format>image/svg+xml</dc:format><dc:type
           rdf:resource="http://purl.org/dc/dcmitype/StillImage" /></cc:Work></rdf:RDF></metadata><defs
     id="defs6" /><g
     transform="matrix(1.3333333,0,0,-1.3333333,0,167.79333)"
     id="g10"><g
       transform="translate(161.544,108.825)"
       id="g12"><g
         id="g14"><g
           id="g16"><g
             id="g18"><g
               id="g20"><path
                 id="path22"
                 style="fill:#222935;fill-opacity:1;fill-rule:nonzero;stroke:#000000;stroke-width:1.24535;stroke-linecap:butt;stroke-linejoin:miter;stroke-miterlimit:10;stroke-dasharray:none;stroke-opacity:1"
                 d="m 28.96338,6.43393 h -57.92676 c -2.20094,0 -3.98511,-1.78416 -3.98511,-3.98511 v -4.89764 c 0,-2.20095 1.78417,-3.98511 3.98511,-3.98511 h 57.92676 c 2.20094,0 3.98511,1.78416 3.98511,3.98511 v 4.89764 c 0,2.20095 -1.78417,3.98511 -3.98511,3.98511 z" /></g><g
               transform="translate(-29.628,-3.113)"
               id="g24"><g
                 id="g26"><g
                   transform="translate(-131.916,-105.712)"
                   id="g28"><text
                     id="text32"
                     style="font-variant:normal;font-weight:normal;font-size:8.96640015px;font-family:CMR9;-inkscape-font-specification:CMR9;writing-mode:lr-tb;fill:#ffffff;fill-opacity:1;fill-rule:nonzero;stroke:none"
                     transform="matrix(1,0,0,-1,131.916,105.712)"><tspan
                       id="tspan30"
                       y="0"
                       x="0 6.2711 13.054182 21.50053 27.771631 34.427391 40.69849 43.770378 49.529495 54.137329">ERMETE-Lab</tspan></text>
<g
                     transform="translate(131.916,105.712)"
                     id="g34" /></g></g><g
                 transform="translate(29.628,3.113)"
                 id="g36" /></g></g><g
             id="g38"><g
               id="g40"><path
                 id="path42"
                 style="fill:#646972;fill-opacity:1;fill-rule:nonzero;stroke:#000000;stroke-width:1.24535;stroke-linecap:butt;stroke-linejoin:miter;stroke-miterlimit:10;stroke-dasharray:none;stroke-opacity:1"
                 d="m -123.2194,-36.02608 h -23.75612 c -2.20095,0 -3.98511,-1.78416 -3.98511,-3.9851 v -4.79799 c 0,-2.20095 1.78416,-3.98511 3.98511,-3.98511 h 23.75612 c 2.20094,0 3.9851,1.78416 3.9851,3.98511 v 4.79799 c 0,2.20094 -1.78416,3.9851 -3.9851,3.9851 z" /></g><g
               transform="translate(-147.638,-45.473)"
               id="g44"><g
                 id="g46"><g
                   transform="translate(-13.906,-63.352)"
                   id="g48"><text
                     id="text52"
                     style="font-variant:normal;font-weight:normal;font-size:8.96640015px;font-family:CMR9;-inkscape-font-specification:CMR9;writing-mode:lr-tb;fill:#ffffff;fill-opacity:1;fill-rule:nonzero;stroke:none"
                     transform="matrix(1,0,0,-1,13.906,63.352)"><tspan
                       id="tspan50"
                       y="0"
                       x="0 6.523056 13.690796 18.81061">ROSE</tspan></text>
<g
                     transform="translate(13.906,63.352)"
                     id="g54" /></g></g><g
                 transform="translate(147.638,45.473)"
                 id="g56" /></g></g><g
             id="g58"><g
               id="g60"><path
                 id="path62"
                 style="fill:#d3d4d7;fill-opacity:1;fill-rule:nonzero;stroke:#000000;stroke-width:1.24535;stroke-linecap:butt;stroke-linejoin:miter;stroke-miterlimit:10;stroke-dasharray:none;stroke-opacity:1"
                 d="m -93.469,-64.21303 h -27.62153 c -2.20094,0 -3.98511,-1.78417 -3.98511,-3.98511 v -6.64112 c 0,-2.20094 1.78417,-3.98511 3.98511,-3.98511 H -93.469 c 2.20095,0 3.98511,1.78417 3.98511,3.98511 v 6.64112 c 0,2.20094 -1.78416,3.98511 -3.98511,3.98511 z" /></g><g
               transform="translate(-121.754,-73.759)"
               id="g64"><g
                 id="g66"><g
                   transform="translate(-39.79,-35.066)"
                   id="g68"><text
                     id="text72"
                     style="font-variant:normal;font-weight:normal;font-size:8.96640015px;font-family:CMR9;-inkscape-font-specification:CMR9;writing-mode:lr-tb;fill:#000000;fill-opacity:1;fill-rule:nonzero;stroke:none"
                     transform="matrix(1,0,0,-1,39.79,35.066)"><tspan
                       id="tspan70"
                       y="0"
                       x="0 4.8597889 9.732131 12.54758 17.155413 20.759907 24.855757">pyforce</tspan></text>
<g
                     transform="translate(39.79,35.066)"
                     id="g74" /></g></g><g
                 transform="translate(121.754,73.759)"
                 id="g76" /></g></g><g
             id="g78"><g
               id="g80"><path
                 id="path82"
                 style="fill:#d3d4d7;fill-opacity:1;fill-rule:nonzero;stroke:#000000;stroke-width:1.24535;stroke-linecap:butt;stroke-linejoin:miter;stroke-miterlimit:10;stroke-dasharray:none;stroke-opacity:1"
                 d="m -67.64421,-85.47314 h -53.44632 c -2.20094,0 -3.98511,-1.78417 -3.98511,-3.98511 v -4.79799 c 0,-2.20094 1.78417,-3.98511 3.98511,-3.98511 h 53.44632 c 2.20094,0 3.98511,1.78417 3.98511,3.98511 v 4.79799 c 0,2.20094 -1.78417,3.98511 -3.98511,3.98511 z" /></g><g
               transform="translate(-121.754,-94.919)"
               id="g84"><g
                 id="g86"><g
                   transform="translate(-39.79,-13.906)"
                   id="g88"><text
                     id="text92"
                     style="font-variant:normal;font-weight:normal;font-size:8.96640015px;font-family:CMR9;-inkscape-font-specification:CMR9;writing-mode:lr-tb;fill:#000000;fill-opacity:1;fill-rule:nonzero;stroke:none"
                     transform="matrix(1,0,0,-1,39.79,13.906)"><tspan
                       id="tspan90"
                       y="0"
                       x="0 6.523056 13.690796 22.137144 26.744978 32.508579 39.416294 46.326698">ROM4FOAM</tspan></text>
<g
                     transform="translate(39.79,13.906)"
                     id="g94" /></g></g><g
                 transform="translate(121.754,94.919)"
                 id="g96" /></g></g><g
             id="g98"><g
               id="g100"><path
                 id="path102"
                 style="fill:#646972;fill-opacity:1;fill-rule:nonzero;stroke:#000000;stroke-width:1.24535;stroke-linecap:butt;stroke-linejoin:miter;stroke-miterlimit:10;stroke-dasharray:none;stroke-opacity:1"
                 d="M 136.60742,-36.02608 H 123.2194 c -2.20094,0 -3.9851,-1.78416 -3.9851,-3.9851 v -4.79799 c 0,-2.20095 1.78416,-3.98511 3.9851,-3.98511 h 13.38802 c 2.20094,0 3.98511,1.78416 3.98511,3.98511 v 4.79799 c 0,2.20094 -1.78417,3.9851 -3.98511,3.9851 z" /></g><g
               transform="translate(122.553,-45.473)"
               id="g104"><g
                 id="g106"><g
                   transform="translate(-284.097,-63.352)"
                   id="g108"><text
                     id="text112"
                     style="font-variant:normal;font-weight:normal;font-size:8.96640015px;font-family:CMR9;-inkscape-font-specification:CMR9;writing-mode:lr-tb;fill:#ffffff;fill-opacity:1;fill-rule:nonzero;stroke:none"
                     transform="matrix(1,0,0,-1,284.097,63.352)"><tspan
                       id="tspan110"
                       y="0"
                       x="0 8.4463491">MP</tspan></text>
<g
                     transform="translate(284.097,63.352)"
                     id="g114" /></g></g><g
                 transform="translate(-122.553,45.473)"
                 id="g116" /></g></g><g
             id="g118"><g
               id="g120"><path
                 id="path122"
                 style="fill:#d3d4d7;fill-opacity:1;fill-rule:nonzero;stroke:#000000;stroke-width:1.24535;stroke-linecap:butt;stroke-linejoin:miter;stroke-miterlimit:10;stroke-dasharray:none;stroke-opacity:1"
                 d="m 183.13965,-64.21303 h -38.73409 c -2.20094,0 -3.9851,-1.78417 -3.9851,-3.98511 v -6.54147 c 0,-2.20094 1.78416,-3.98511 3.9851,-3.98511 h 38.73409 c 2.20094,0 3.98511,1.78417 3.98511,3.98511 v 6.54147 c 0,2.20094 -1.78417,3.98511 -3.98511,3.98511 z" /></g><g
               transform="translate(143.739,-73.659)"
               id="g124"><g
                 id="g126"><g
                   transform="translate(-305.283,-35.166)"
                   id="g128"><text
                     id="text132"
                     style="font-variant:normal;font-weight:normal;font-size:8.96640015px;font-family:CMR9;-inkscape-font-specification:CMR9;writing-mode:lr-tb;fill:#000000;fill-opacity:1;fill-rule:nonzero;stroke:none"
                     transform="matrix(1,0,0,-1,305.283,35.166)"><tspan
                       id="tspan130"
                       y="0"
                       x="0 4.8597889 9.7231646 13.049699 18.169514 23.422029 27.521467 32.641281 35.201191">pyISFenix</tspan></text>
<g
                     transform="translate(305.283,35.166)"
                     id="g134" /></g></g><g
                 transform="translate(-143.739,73.659)"
                 id="g136" /></g></g><path
             id="path138"
             style="fill:none;stroke:#000000;stroke-width:1.24535;stroke-linecap:butt;stroke-linejoin:miter;stroke-miterlimit:10;stroke-dasharray:none;stroke-opacity:1"
             d="m 0,-7.0566 v -14.2035 0 h -135.09747 v -8.8557" /><g
             transform="rotate(-90,-80.953995,54.143475)"
             id="g140"><g
               id="g142"><path
                 id="path144"
                 style="fill:#000000;fill-opacity:1;fill-rule:nonzero;stroke:#000000;stroke-width:1.24535;stroke-linecap:butt;stroke-linejoin:miter;stroke-miterlimit:10;stroke-dasharray:none;stroke-opacity:1"
                 d="M 6.81952,0 2.01083,1.82368 3.61661,0 2.01083,-1.82368 Z" /></g></g><path
             id="path146"
             style="fill:none;stroke:#000000;stroke-width:1.24535;stroke-linecap:butt;stroke-linejoin:miter;stroke-miterlimit:10;stroke-dasharray:none;stroke-opacity:1"
             d="m 0,-7.0566 v -14.2035 0 h 129.9134 v -8.8557" /><g
             transform="rotate(-90,51.55144,-78.36196)"
             id="g148"><g
               id="g150"><path
                 id="path152"
                 style="fill:#000000;fill-opacity:1;fill-rule:nonzero;stroke:#000000;stroke-width:1.24535;stroke-linecap:butt;stroke-linejoin:miter;stroke-miterlimit:10;stroke-dasharray:none;stroke-opacity:1"
                 d="M 6.81952,0 2.01083,1.82368 3.61661,0 2.01083,-1.82368 Z" /></g></g><g
             id="g154"><path
               id="path156"
               style="fill:none;stroke:#000000;stroke-width:0.49814001;stroke-linecap:butt;stroke-linejoin:miter;stroke-miterlimit:10;stroke-dasharray:none;stroke-opacity:1"
               d="M -135.09747,-49.41696 V -71.5187 h 6.07362" /><g
               transform="translate(-130.92876,-71.5187)"
               id="g158"><g
                 id="g160"><path
                   id="path162"
                   style="fill:#000000;fill-opacity:1;fill-rule:nonzero;stroke:#000000;stroke-width:0.49814001;stroke-linecap:butt;stroke-linejoin:miter;stroke-miterlimit:10;stroke-dasharray:none;stroke-opacity:1"
                   d="M 4.5211,0 0.80438,1.40184 2.02943,0 0.80438,-1.40184 Z" /></g></g></g><g
             id="g164"><path
               id="path166"
               style="fill:none;stroke:#000000;stroke-width:0.49814001;stroke-linecap:butt;stroke-linejoin:miter;stroke-miterlimit:10;stroke-dasharray:none;stroke-opacity:1"
               d="m -135.09747,-49.41696 v -42.44029 h 6.07362" /><g
               transform="translate(-130.92876,-91.85725)"
               id="g168"><g
                 id="g170"><path
                   id="path172"
                   style="fill:#000000;fill-opacity:1;fill-rule:nonzero;stroke:#000000;stroke-width:0.49814001;stroke-linecap:butt;stroke-linejoin:miter;stroke-miterlimit:10;stroke-dasharray:none;stroke-opacity:1"
                   d="M 4.5211,0 0.80438,1.40184 2.02943,0 0.80438,-1.40184 Z" /></g></g></g><g
             id="g174"><path
               id="path176"
               style="fill:none;stroke:#000000;stroke-width:0.49814001;stroke-linecap:butt;stroke-linejoin:miter;stroke-miterlimit:10;stroke-dasharray:none;stroke-opacity:1"
               d="m 129.9134,-49.41696 v -22.05191 h 6.55884" /><g
               transform="translate(134.56732,-71.46887)"
               id="g178"><g
                 id="g180"><path
                   id="path182"
                   style="fill:#000000;fill-opacity:1;fill-rule:nonzero;stroke:#000000;stroke-width:0.49814001;stroke-linecap:butt;stroke-linejoin:miter;stroke-miterlimit:10;stroke-dasharray:none;stroke-opacity:1"
                   d="M 4.5211,0 0.80438,1.40184 2.02943,0 0.80438,-1.40184 Z" /></g></g></g></g></g></g></g></svg>